<?xml version="1.0" encoding="UTF-8"?>
<!DOCTYPE svg PUBLIC "-//W3C//DTD SVG 1.1//EN" "http://www.w3.org/Graphics/SVG/1.1/DTD/svg11.dtd">
<svg xmlns="http://www.w3.org/2000/svg" version="1.1" width="500px" height="500px" style="shape-rendering:geometricPrecision; text-rendering:geometricPrecision; image-rendering:optimizeQuality; fill-rule:evenodd; clip-rule:evenodd" xmlns:xlink="http://www.w3.org/1999/xlink">
<g><path style="opacity:0.97" fill="#896593" d="M 247.5,102.5 C 253.189,102.089 258.522,103.256 263.5,106C 297.5,125.333 331.5,144.667 365.5,164C 371.651,167.479 375.484,172.646 377,179.5C 377.667,221.5 377.667,263.5 377,305.5C 376.288,312.547 372.788,317.714 366.5,321C 330.998,342.252 295.331,363.252 259.5,384C 251.486,385.943 243.819,384.943 236.5,381C 203.665,361.082 170.665,341.415 137.5,322C 132.123,318.957 128.623,314.457 127,308.5C 126.333,264.833 126.333,221.167 127,177.5C 129.351,170.481 133.851,165.314 140.5,162C 175.981,141.599 211.647,121.765 247.5,102.5 Z"/></g>
<g><path style="opacity:1" fill="#fefcff" d="M 248.5,115.5 C 253.836,115.251 258.836,116.418 263.5,119C 293.908,137.066 324.575,154.733 355.5,172C 360.581,174.743 363.747,178.91 365,184.5C 365.667,223.167 365.667,261.833 365,300.5C 364.258,305.151 362.092,308.984 358.5,312C 325.665,331.918 292.665,351.585 259.5,371C 252.479,373.405 245.813,372.738 239.5,369C 209.333,350.415 178.999,332.082 148.5,314C 143.856,311.359 140.689,307.525 139,302.5C 138.333,262.833 138.333,223.167 139,183.5C 140.339,179.163 142.839,175.663 146.5,173C 178.997,154.586 211.33,135.919 243.5,117C 245.382,116.802 247.048,116.302 248.5,115.5 Z"/></g>
<g><path style="opacity:1" fill="#85628d" d="M 246.5,125.5 C 252.072,124.99 257.405,125.823 262.5,128C 290.67,144.586 319.003,160.919 347.5,177C 351.788,179.292 354.622,182.792 356,187.5C 356.667,224.5 356.667,261.5 356,298.5C 354.212,303.92 350.712,307.753 345.5,310C 316.5,327 287.5,344 258.5,361C 250.918,362.548 243.918,361.215 237.5,357C 209.5,340.333 181.5,323.667 153.5,307C 150.894,305.062 149.061,302.562 148,299.5C 147.333,261.833 147.333,224.167 148,186.5C 149.4,183.098 151.567,180.264 154.5,178C 185.099,160.206 215.765,142.706 246.5,125.5 Z"/></g>
<g><path style="opacity:1" fill="#f8eaff" d="M 214.5,190.5 C 218.884,190.174 223.217,190.508 227.5,191.5C 225.333,191.833 223.167,192.167 221,192.5C 218.39,192.467 216.223,191.8 214.5,190.5 Z"/></g>
<g><path style="opacity:1" fill="#f7e6fe" d="M 240.5,198.5 C 239.887,204.271 240.554,209.604 242.5,214.5C 240.569,223.57 239.903,232.903 240.5,242.5C 239.833,243.833 238.833,244.833 237.5,245.5C 235.265,245.795 233.265,245.461 231.5,244.5C 233.556,243.784 235.723,243.117 238,242.5C 238.5,233.84 238.666,225.173 238.5,216.5C 230.5,216.5 222.5,216.5 214.5,216.5C 214.666,225.173 214.5,233.84 214,242.5C 212.961,243.244 212.461,244.244 212.5,245.5C 211.5,245.5 210.5,245.5 209.5,245.5C 209.783,244.711 210.283,244.044 211,243.5C 211.167,238.833 211.333,234.167 211.5,229.5C 211.446,224.321 210.779,219.321 209.5,214.5C 211.225,209.05 212.058,203.384 212,197.5C 212.692,196.975 213.192,196.308 213.5,195.5C 221.813,194.335 230.147,194.168 238.5,195C 239.305,196.113 239.972,197.279 240.5,198.5 Z"/></g>
<g><path style="opacity:1" fill="#916c9b" d="M 215.5,196.5 C 222.841,196.334 230.174,196.5 237.5,197C 238.473,202.407 238.807,207.907 238.5,213.5C 230.167,213.5 221.833,213.5 213.5,213.5C 213.334,208.489 213.501,203.489 214,198.5C 214.717,197.956 215.217,197.289 215.5,196.5 Z"/></g>
<g><path style="opacity:1" fill="#b37acc" d="M 240.5,198.5 C 241.21,203.732 241.877,209.065 242.5,214.5C 240.554,209.604 239.887,204.271 240.5,198.5 Z"/></g>
<g><path style="opacity:1" fill="#fcf8ff" d="M 222.5,199.5 C 224.752,199.916 226.252,201.249 227,203.5C 227.667,206.167 227.667,208.833 227,211.5C 226.667,209.167 226.333,206.833 226,204.5C 224.198,203.211 223.031,201.544 222.5,199.5 Z"/></g>
<g><path style="opacity:1" fill="#db9afb" d="M 280.5,190.5 C 280.5,195.833 280.5,201.167 280.5,206.5C 275.167,206.5 269.833,206.5 264.5,206.5C 269.305,205.513 274.305,205.179 279.5,205.5C 279.179,200.305 279.513,195.305 280.5,190.5 Z"/></g>
<g><path style="opacity:1" fill="#e6b5ff" d="M 281.5,190.5 C 282.487,195.305 282.821,200.305 282.5,205.5C 287.695,205.179 292.695,205.513 297.5,206.5C 292.167,206.5 286.833,206.5 281.5,206.5C 281.5,201.167 281.5,195.833 281.5,190.5 Z"/></g>
<g><path style="opacity:1" fill="#efd1ff" d="M 297.5,206.5 C 298.043,206.56 298.376,206.893 298.5,207.5C 293.208,208.495 287.875,208.828 282.5,208.5C 287.5,207.833 292.5,207.167 297.5,206.5 Z"/></g>
<g><path style="opacity:1" fill="#886592" d="M 231.5,244.5 C 225.256,245.458 218.923,245.791 212.5,245.5C 212.461,244.244 212.961,243.244 214,242.5C 214.5,233.84 214.666,225.173 214.5,216.5C 222.5,216.5 230.5,216.5 238.5,216.5C 238.666,225.173 238.5,233.84 238,242.5C 235.723,243.117 233.556,243.784 231.5,244.5 Z"/></g>
<g><path style="opacity:1" fill="#af74c8" d="M 242.5,214.5 C 243.043,214.56 243.376,214.893 243.5,215.5C 241.887,224.486 240.887,233.486 240.5,242.5C 239.903,232.903 240.569,223.57 242.5,214.5 Z"/></g>
<g><path style="opacity:1" fill="#fdfbff" d="M 222.5,220.5 C 224.665,219.065 226.165,219.731 227,222.5C 227.667,227.167 227.667,231.833 227,236.5C 226.667,232.167 226.333,227.833 226,223.5C 224.961,222.29 223.794,221.29 222.5,220.5 Z"/></g>
<g><path style="opacity:1" fill="#fbf4ff" d="M 280.5,190.5 C 280.833,190.5 281.167,190.5 281.5,190.5C 281.5,195.833 281.5,201.167 281.5,206.5C 286.833,206.5 292.167,206.5 297.5,206.5C 292.5,207.167 287.5,207.833 282.5,208.5C 282.5,214.5 282.5,220.5 282.5,226.5C 286.182,226.335 289.848,226.501 293.5,227C 294,227.5 294.5,228 295,228.5C 295.667,242.167 295.667,255.833 295,269.5C 294.5,270 294,270.5 293.5,271C 285.167,271.667 276.833,271.667 268.5,271C 268,270.5 267.5,270 267,269.5C 266.333,255.833 266.333,242.167 267,228.5C 267.5,228 268,227.5 268.5,227C 272.486,226.501 276.486,226.334 280.5,226.5C 280.5,220.5 280.5,214.5 280.5,208.5C 274.729,209.113 269.396,208.446 264.5,206.5C 269.833,206.5 275.167,206.5 280.5,206.5C 280.5,201.167 280.5,195.833 280.5,190.5 Z"/></g>
<g><path style="opacity:1" fill="#86638e" d="M 269.5,228.5 C 277.42,228.185 285.253,228.518 293,229.5C 293.5,242.829 293.667,256.163 293.5,269.5C 285.248,269.816 277.081,269.482 269,268.5C 268.187,255.092 268.353,241.758 269.5,228.5 Z"/></g>
<g><path style="opacity:1" fill="#dba5f5" d="M 231.5,244.5 C 233.265,245.461 235.265,245.795 237.5,245.5C 237.5,245.833 237.5,246.167 237.5,246.5C 228.749,246.197 220.082,246.53 211.5,247.5C 210.833,246.833 210.167,246.167 209.5,245.5C 210.5,245.5 211.5,245.5 212.5,245.5C 218.923,245.791 225.256,245.458 231.5,244.5 Z"/></g>
<g><path style="opacity:1" fill="#fbf5ff" d="M 237.5,246.5 C 239.017,246.511 240.184,247.177 241,248.5C 241.2,255.883 241.7,263.216 242.5,270.5C 231.5,271.833 220.5,271.833 209.5,270.5C 210.2,262.835 210.867,255.169 211.5,247.5C 220.082,246.53 228.749,246.197 237.5,246.5 Z"/></g>
<g><path style="opacity:1" fill="#886591" d="M 212.5,248.5 C 214.857,248.337 217.19,248.503 219.5,249C 218.903,250.062 218.57,251.228 218.5,252.5C 219.795,256.088 220.795,259.755 221.5,263.5C 221.41,265.228 221.077,266.894 220.5,268.5C 217.914,269.48 215.247,269.813 212.5,269.5C 212.5,262.5 212.5,255.5 212.5,248.5 Z"/></g>
<g><path style="opacity:1" fill="#906a9c" d="M 221.5,248.5 C 224.187,248.336 226.854,248.503 229.5,249C 228.892,250.231 228.559,251.564 228.5,253C 229.487,256.65 230.487,260.317 231.5,264C 231.057,265.825 230.723,267.658 230.5,269.5C 227.753,269.813 225.086,269.48 222.5,268.5C 223.063,267.061 223.397,265.561 223.5,264C 222.905,260.216 221.905,256.549 220.5,253C 220.773,251.467 221.106,249.967 221.5,248.5 Z"/></g>
<g><path style="opacity:1" fill="#926c9d" d="M 231.5,248.5 C 234.119,248.232 236.619,248.565 239,249.5C 239.5,256.158 239.666,262.825 239.5,269.5C 237.167,269.5 234.833,269.5 232.5,269.5C 232.878,267.354 233.212,265.187 233.5,263C 232.241,259.796 231.241,256.463 230.5,253C 230.605,251.408 230.939,249.908 231.5,248.5 Z"/></g>
<g><path style="opacity:1" fill="#f8ebff" d="M 166.5,291.5 C 167.791,292.542 167.791,293.708 166.5,295C 164.866,295.494 163.199,295.66 161.5,295.5C 161.657,296.873 161.49,298.207 161,299.5C 160.502,296.518 160.335,293.518 160.5,290.5C 162.735,290.205 164.735,290.539 166.5,291.5 Z"/></g>
<g><path style="opacity:1" fill="#fdf9ff" d="M 251.5,293.5 C 250.883,293.389 250.383,293.056 250,292.5C 249.503,294.81 249.337,297.143 249.5,299.5C 248.197,296.645 248.197,293.645 249.5,290.5C 250.919,291.005 251.585,292.005 251.5,293.5 Z"/></g>
<g><path style="opacity:1" fill="#f6e5ff" d="M 254.5,290.5 C 255.477,293.287 255.81,296.287 255.5,299.5C 253.457,298.421 252.124,296.754 251.5,294.5C 251.5,294.167 251.5,293.833 251.5,293.5C 252.79,294.058 253.623,295.058 254,296.5C 254.495,294.527 254.662,292.527 254.5,290.5 Z"/></g>
<g><path style="opacity:1" fill="#d797f7" d="M 254.5,290.5 C 254.56,289.957 254.893,289.624 255.5,289.5C 256.806,292.98 256.806,296.313 255.5,299.5C 255.81,296.287 255.477,293.287 254.5,290.5 Z"/></g>
<g><path style="opacity:1" fill="#d28ef4" d="M 336.5,290.5 C 336.56,289.957 336.893,289.624 337.5,289.5C 338.48,292.086 338.813,294.753 338.5,297.5C 337.833,295.167 337.167,292.833 336.5,290.5 Z"/></g>
<g><path style="opacity:1" fill="#d594f6" d="M 342.5,290.5 C 342.56,289.957 342.893,289.624 343.5,289.5C 344.8,292.309 344.8,294.976 343.5,297.5C 343.802,294.941 343.468,292.607 342.5,290.5 Z"/></g>
<g><path style="opacity:1" fill="#9b6fa9" d="M 166.5,291.5 C 165.952,294.084 164.285,295.084 161.5,294.5C 161.5,293.5 161.5,292.5 161.5,291.5C 163.167,291.5 164.833,291.5 166.5,291.5 Z"/></g>
<g><path style="opacity:1" fill="#efcffe" d="M 294.5,289.5 C 297.278,289.022 299.278,290.022 300.5,292.5C 300.167,292.833 299.833,293.167 299.5,293.5C 294.872,290.26 292.705,291.594 293,297.5C 292.109,294.502 292.609,291.836 294.5,289.5 Z"/></g>
<g><path style="opacity:1" fill="#d287f7" d="M 251.5,293.5 C 251.5,293.833 251.5,294.167 251.5,294.5C 250.833,296.167 250.167,297.833 249.5,299.5C 249.337,297.143 249.503,294.81 250,292.5C 250.383,293.056 250.883,293.389 251.5,293.5 Z"/></g>
<g><path style="opacity:1" fill="#fcf6ff" d="M 296.5,295.5 C 297.568,294.566 298.901,294.232 300.5,294.5C 300.66,296.199 300.494,297.866 300,299.5C 298.312,298.675 298.145,297.675 299.5,296.5C 298.675,295.614 297.675,295.281 296.5,295.5 Z"/></g>
<g><path style="opacity:1" fill="#f6e6ff" d="M 209.5,294.5 C 210.833,295.5 210.833,296.5 209.5,297.5C 208.432,296.566 207.099,296.232 205.5,296.5C 205.247,294.173 205.914,292.173 207.5,290.5C 209.111,291.32 209.778,292.654 209.5,294.5 Z"/></g>
<g><path style="opacity:1" fill="#a274b3" d="M 209.5,294.5 C 206.443,295.97 205.943,295.303 208,292.5C 208.278,293.416 208.778,294.082 209.5,294.5 Z"/></g>
<g><path style="opacity:1" fill="#e8b9ff" d="M 205.5,296.5 C 207.099,296.232 208.432,296.566 209.5,297.5C 207.508,297.328 205.842,297.995 204.5,299.5C 203.335,298.14 203.668,297.14 205.5,296.5 Z"/></g>
<g><path style="opacity:1" fill="#f8ecff" d="M 336.5,290.5 C 337.167,292.833 337.833,295.167 338.5,297.5C 339.542,298.791 340.708,298.791 342,297.5C 342.497,295.19 342.663,292.857 342.5,290.5C 343.468,292.607 343.802,294.941 343.5,297.5C 341.989,299.441 339.989,299.941 337.5,299C 336.556,296.281 336.223,293.448 336.5,290.5 Z"/></g>
</svg>
