<?xml version="1.0" standalone="no"?>
<!DOCTYPE svg PUBLIC "-//W3C//DTD SVG 20010904//EN"
 "http://www.w3.org/TR/2001/REC-SVG-20010904/DTD/svg10.dtd">
<svg version="1.0" xmlns="http://www.w3.org/2000/svg"
 width="1280.000000pt" height="1033.000000pt" viewBox="0 0 1280.000000 1033.000000"
 preserveAspectRatio="xMidYMid meet">
<metadata>
Created by potrace 1.15, written by Peter Selinger 2001-2017
</metadata>
<g transform="translate(0.000000,1033.000000) scale(0.100000,-0.100000)"
fill="#ffffff" stroke="none">
<path d="M3290 10320 c-1 -20 72 -811 120 -1300 33 -338 101 -1041 125 -1305
126 -1388 152 -2582 79 -3610 -34 -490 -105 -1074 -178 -1483 l-23 -132 339 0
c850 0 1543 -95 2398 -330 282 -78 564 -167 1259 -401 360 -121 658 -218 661
-217 14 6 -541 1419 -823 2098 -1138 2739 -2194 4593 -3528 6195 -177 213
-428 496 -429 485z"/>
<path d="M2901 8508 c-29 -106 -82 -296 -116 -423 -35 -126 -96 -347 -135
-490 -100 -365 -200 -727 -281 -1022 -38 -139 -100 -367 -138 -505 -38 -139
-102 -370 -141 -513 -39 -143 -103 -374 -141 -512 -38 -139 -101 -369 -140
-510 -39 -142 -102 -372 -140 -510 -38 -139 -100 -367 -138 -505 -38 -139
-102 -370 -141 -513 -39 -143 -92 -333 -117 -423 -25 -90 -43 -165 -41 -168 3
-2 47 16 99 40 413 195 888 227 1467 99 63 -14 115 -23 117 -21 1 1 8 800 14
1773 7 974 16 2359 21 3079 5 721 8 1311 6 1313 -1 2 -26 -84 -55 -189z"/>
<path d="M2195 2213 c-396 -31 -605 -63 -925 -143 -406 -101 -844 -278 -1167
-469 l-102 -61 205 -313 c114 -171 207 -313 209 -315 1 -2 57 32 122 76 483
315 1087 521 1769 602 229 28 796 38 1086 21 516 -32 1068 -109 1733 -245 370
-75 733 -159 1610 -370 1017 -245 1366 -320 1855 -400 755 -124 1647 -167
2795 -136 566 15 1329 41 1340 45 6 2 -35 4 -90 4 -156 1 -1139 29 -1435 41
-1255 49 -2071 155 -2968 385 -344 89 -722 198 -1467 427 -846 258 -1434 427
-1870 533 -734 181 -1318 277 -1900 315 -143 9 -699 12 -800 3z"/>
<path d="M2400 1256 c-546 -54 -1022 -199 -1412 -431 l-78 -45 150 -225 149
-224 103 65 c57 36 166 96 243 134 706 346 1576 399 2795 170 371 -70 613
-124 1370 -306 1089 -263 1442 -326 2069 -369 316 -22 900 -29 1331 -16 206 6
483 14 615 18 309 9 244 18 -185 27 -1293 25 -2007 102 -2760 297 -222 58
-523 145 -930 269 -1428 436 -1947 559 -2660 630 -173 18 -647 21 -800 6z"/>
</g>
    <text xml:space="preserve" text-anchor="start" font-family="Helvetica, Arial, sans-serif" font-size="200" id="svg_6" y="900" x="900" stroke-width="0" stroke="#000" fill="#ffffff">方 舟</text>
<!--    <path stroke="#783887" id="svg_7" d="m934.754993,892.78275l18.3345,0l5.665502,-17.570485l5.665505,17.570485l18.334497,0l-14.832895,10.859033l5.665795,17.570485l-14.832902,-10.859328l-14.832898,10.859328l5.665796,-17.570485l-14.8329,-10.859033z" stroke-width="20" fill="#783887"/>-->
</svg>